# xmcd
# Copyright (C) 1995-1998 Ti Kan
#
# Track frame offsets:
#       150
#       23926
#       44296
#       70942
#       96948
#
# Disc length: 1643 seconds
#
# Revision: 0
# Processed by: cddbd v1.4b42PL1 Copyright (c) Steve Scherf et al.
# Submitted via: CD-Transfer v1.0
#
DISCID=3d066905
DTITLE=Suicide Chicken - Shake Me
DYEAR=2001
DGENRE=
TTITLE0=Shake Me
TTITLE1=Wrong
TTITLE2=Twin Stars
TTITLE3=Help You
TTITLE4=Leave
EXTD=
EXTT0=
EXTT1=
EXTT2=
EXTT3=
EXTT4=
PLAYORDER=
